<svg width="36" height="32" viewBox="0 0 36 32" fill="none" xmlns="http://www.w3.org/2000/svg">
<path d="M25.8054 0C31.9368 0 35.5556 3.52817 35.5556 9.56765H28.0336V9.62927C24.5426 9.62927 21.7126 12.3884 21.7126 15.792C21.7126 19.1956 24.5426 21.9547 28.0336 21.9547H35.5556V22.5094C35.5556 28.4718 31.9368 32 25.8054 32H9.75012C3.61877 32 0 28.4718 0 22.5094V9.49061C0 3.52817 3.61877 0 9.75012 0H25.8054ZM34.2282 12.2176C34.9613 12.2176 35.5556 12.797 35.5556 13.5118V18.0106C35.547 18.7219 34.9577 19.2964 34.2282 19.3048H28.1758C26.4085 19.328 24.8631 18.1482 24.4622 16.4699C24.2615 15.4281 24.5433 14.353 25.2321 13.5328C25.921 12.7127 26.9464 12.2312 28.0336 12.2176H34.2282ZM28.8869 14.2975H28.3022C27.9433 14.2934 27.5975 14.4296 27.3422 14.6756C27.0869 14.9217 26.9432 15.2571 26.9432 15.6071C26.9432 16.3414 27.5491 16.9391 28.3022 16.9475H28.8869C29.6375 16.9475 30.2459 16.3543 30.2459 15.6225C30.2459 14.8908 29.6375 14.2975 28.8869 14.2975ZM18.4573 6.91767H8.42272C7.67828 6.91762 7.07236 7.5015 7.0637 8.22725C7.0637 8.96156 7.66961 9.55921 8.42272 9.56765H18.4573C19.2078 9.56765 19.8163 8.97443 19.8163 8.24266C19.8163 7.51089 19.2078 6.91767 18.4573 6.91767Z" fill="#D9883D"/>
</svg>
